<svg
      viewBox="0 0 576 512"
      fill="currentColor"
      height="1em"
      width="1em"
    >
      <path class="light_border" d="M0 112.5v309.8c0 18 10.1 35 27 41.3 87 32.5 174 10.3 261-11.9 79.8-20.3 159.6-40.7 239.3-18.9 23 6.3 48.7-9.5 48.7-33.4V89.7c0-18-10.1-35-27-41.3-87-32.5-174-10.3-261 11.9-79.8 20.3-159.6 40.6-239.3 18.8C25.6 72.8 0 88.6 0 112.5zM288 352c-44.2 0-80-43-80-96s35.8-96 80-96 80 43 80 96-35.8 96-80 96zm-224 0c35.3 0 64 28.7 64 64H64v-64zm64-208c0 35.3-28.7 64-64 64v-64h64zm384 160v64h-64c0-35.3 28.7-64 64-64zM448 96h64v64c-35.3 0-64-28.7-64-64z" />
      <path class="dark_border" d="M0 112.5v309.8c0 18 10.1 35 27 41.3 87 32.5 174 10.3 261-11.9 79.8-20.3 159.6-40.7 239.3-18.9 23 6.3 48.7-9.5 48.7-33.4V89.7c0-18-10.1-35-27-41.3-87-32.5-174-10.3-261 11.9-79.8 20.3-159.6 40.6-239.3 18.8C25.6 72.8 0 88.6 0 112.5zM288 352c-44.2 0-80-43-80-96s35.8-96 80-96 80 43 80 96-35.8 96-80 96zm-224 0c35.3 0 64 28.7 64 64H64v-64zm64-208c0 35.3-28.7 64-64 64v-64h64zm384 160v64h-64c0-35.3 28.7-64 64-64zM448 96h64v64c-35.3 0-64-28.7-64-64z" />
    </svg>